<mxfile host="65bd71144e">
    <diagram id="Whwxr7C6oZBUOi9A1Vgr" name="Page-1">
        <mxGraphModel dx="1210" dy="814" grid="1" gridSize="10" guides="1" tooltips="1" connect="1" arrows="1" fold="1" page="1" pageScale="1" pageWidth="850" pageHeight="1100" math="0" shadow="0">
            <root>
                <mxCell id="0"/>
                <mxCell id="1" parent="0"/>
                <mxCell id="15" style="edgeStyle=none;html=1;exitX=0.75;exitY=1;exitDx=0;exitDy=0;" edge="1" parent="1" source="2" target="13">
                    <mxGeometry relative="1" as="geometry"/>
                </mxCell>
                <mxCell id="2" value="" style="aspect=fixed;perimeter=ellipsePerimeter;html=1;align=center;shadow=0;dashed=0;spacingTop=3;image;image=img/lib/active_directory/databases.svg;" parent="1" vertex="1">
                    <mxGeometry x="210" y="30" width="90" height="88.2" as="geometry"/>
                </mxCell>
                <mxCell id="3" value="&lt;h1&gt;MongoDB&lt;/h1&gt;&lt;p&gt;- username&lt;/p&gt;&lt;p&gt;- password (encrypted)&lt;/p&gt;" style="text;html=1;strokeColor=none;fillColor=none;spacing=5;spacingTop=-20;whiteSpace=wrap;overflow=hidden;rounded=0;" parent="1" vertex="1">
                    <mxGeometry x="320" y="20" width="190" height="120" as="geometry"/>
                </mxCell>
                <mxCell id="8" value="BACKEND" style="swimlane;labelBackgroundColor=none;fillColor=#d5e8d4;strokeColor=#82b366;" vertex="1" parent="1">
                    <mxGeometry x="40" y="200" width="760" height="200" as="geometry"/>
                </mxCell>
                <mxCell id="27" style="edgeStyle=none;html=1;exitX=0.75;exitY=1;exitDx=0;exitDy=0;entryX=0.25;entryY=0;entryDx=0;entryDy=0;fontColor=default;" edge="1" parent="8" source="10" target="23">
                    <mxGeometry relative="1" as="geometry"/>
                </mxCell>
                <mxCell id="10" value="environment variable: JWT_SECRET" style="text;html=1;strokeColor=#d79b00;fillColor=#ffe6cc;align=center;verticalAlign=middle;whiteSpace=wrap;rounded=0;" vertex="1" parent="8">
                    <mxGeometry x="400" y="30" width="150" height="30" as="geometry"/>
                </mxCell>
                <mxCell id="13" value="1. find user in the MongoDB by username and receive the data (username and encrypted password" style="text;html=1;strokeColor=none;fillColor=none;align=left;verticalAlign=middle;whiteSpace=wrap;rounded=0;" vertex="1" parent="8">
                    <mxGeometry x="40" y="40" width="200" height="50" as="geometry"/>
                </mxCell>
                <mxCell id="16" value="2. compare passwords (both encrypted)" style="text;html=1;strokeColor=none;fillColor=none;align=left;verticalAlign=middle;whiteSpace=wrap;rounded=0;" vertex="1" parent="8">
                    <mxGeometry x="40" y="100" width="200" height="30" as="geometry"/>
                </mxCell>
                <mxCell id="17" value="3. issue the Token signed with JWT_SECRET" style="text;html=1;strokeColor=none;fillColor=none;align=left;verticalAlign=middle;whiteSpace=wrap;rounded=0;" vertex="1" parent="8">
                    <mxGeometry x="40" y="140" width="200" height="30" as="geometry"/>
                </mxCell>
                <mxCell id="23" value="5. Token verification by auth middleware with secret" style="text;html=1;strokeColor=none;fillColor=none;align=left;verticalAlign=middle;whiteSpace=wrap;rounded=0;" vertex="1" parent="8">
                    <mxGeometry x="530" y="130" width="200" height="30" as="geometry"/>
                </mxCell>
                <mxCell id="11" value="FRONTEND" style="swimlane;fillColor=#dae8fc;strokeColor=#6c8ebf;" vertex="1" parent="1">
                    <mxGeometry x="40" y="520" width="760" height="270" as="geometry"/>
                </mxCell>
                <mxCell id="20" value="AXIOS (requests)" style="swimlane;labelBackgroundColor=none;fillColor=#d80073;strokeColor=#A50040;fontColor=#ffffff;" vertex="1" parent="11">
                    <mxGeometry x="230" y="90" width="470" height="120" as="geometry"/>
                </mxCell>
                <mxCell id="21" value="4. each request with received Token in the header" style="text;html=1;strokeColor=none;fillColor=none;align=left;verticalAlign=middle;whiteSpace=wrap;rounded=0;" vertex="1" parent="20">
                    <mxGeometry x="80" y="40" width="200" height="50" as="geometry"/>
                </mxCell>
                <mxCell id="14" style="edgeStyle=none;html=1;exitX=0.25;exitY=0;exitDx=0;exitDy=0;entryX=0.444;entryY=0.907;entryDx=0;entryDy=0;entryPerimeter=0;" edge="1" parent="1" source="13" target="2">
                    <mxGeometry relative="1" as="geometry"/>
                </mxCell>
                <mxCell id="22" style="edgeStyle=none;html=1;exitX=0;exitY=0;exitDx=100;exitDy=135;exitPerimeter=0;entryX=0.25;entryY=0;entryDx=0;entryDy=0;fontColor=default;" edge="1" parent="1" source="18" target="20">
                    <mxGeometry relative="1" as="geometry"/>
                </mxCell>
                <mxCell id="18" value="Token (inside payload data like id or username)" style="html=1;shadow=0;dashed=0;align=center;verticalAlign=middle;shape=mxgraph.arrows2.calloutArrow;dy=10;dx=20;notch=60;arrowHead=10;labelBackgroundColor=none;fillColor=#e1d5e7;rotation=90;strokeColor=#9673a6;horizontal=0;" vertex="1" parent="1">
                    <mxGeometry x="240" y="300" width="100" height="270" as="geometry"/>
                </mxCell>
                <mxCell id="25" style="edgeStyle=none;html=1;exitX=0.25;exitY=1;exitDx=0;exitDy=0;entryX=0.01;entryY=0.456;entryDx=0;entryDy=0;entryPerimeter=0;fontColor=default;" edge="1" parent="1" source="10" target="18">
                    <mxGeometry relative="1" as="geometry"/>
                </mxCell>
                <mxCell id="26" style="edgeStyle=none;html=1;exitX=0.75;exitY=0;exitDx=0;exitDy=0;entryX=0.25;entryY=1;entryDx=0;entryDy=0;fontColor=default;" edge="1" parent="1" source="20" target="23">
                    <mxGeometry relative="1" as="geometry"/>
                </mxCell>
            </root>
        </mxGraphModel>
    </diagram>
</mxfile>